<svg data-v-423bf9ae="" xmlns="http://www.w3.org/2000/svg" viewBox="0 0 83.5459971028608 60" class="font"><!----><!----><defs data-v-423bf9ae=""><linearGradient data-v-423bf9ae="" gradientTransform="rotate(25)" id="ab32117b-3e26-4143-943e-a0f1d19d6c8e" x1="0%" y1="0%" x2="100%" y2="0%"><stop data-v-423bf9ae="" offset="0%" style="stop-color: rgb(57, 94, 202); stop-opacity: 1;"></stop><stop data-v-423bf9ae="" offset="100%" style="stop-color: rgb(132, 139, 216); stop-opacity: 1;"></stop></linearGradient></defs><g data-v-423bf9ae="" id="e136a15d-8e90-435d-86ea-35633d72b221" fill="url(#ab32117b-3e26-4143-943e-a0f1d19d6c8e)" transform="matrix(6.475955319455763,0,0,6.475955319455763,-0.9713917370295064,-22.665843141258016)"><path d="M1.69 3.52L0.15 4.78L0.25 5.01L0.25 5.01Q0.79 4.85 0.96 5.69L0.96 5.69L0.95 10.02L0.95 10.02Q0.96 11.20 1.51 11.89L1.51 11.89L1.51 11.89Q2.06 12.58 3.03 12.69L3.03 12.69L3.03 12.69Q4.00 12.80 4.52 12.31L4.52 12.31L4.52 12.31Q5.04 11.83 5.53 11.17L5.53 11.17L5.53 11.17Q6.01 10.51 6.42 9.65L6.42 9.65L6.42 9.65Q6.83 8.79 6.81 7.26L6.81 7.26L6.81 7.26Q6.78 5.73 5.51 4.27L5.51 4.27L5.51 4.27Q4.96 3.64 3.96 3.50L3.96 3.50L2.58 5.00L2.58 5.00Q2.47 4.01 1.69 3.52L1.69 3.52ZM3.40 5.07L3.40 5.07L3.40 5.07Q3.80 5.02 4.44 5.67L4.44 5.67L4.44 5.67Q5.07 6.32 5.33 8.01L5.33 8.01L5.33 8.01Q5.58 9.69 4.85 11.30L4.85 11.30L4.85 11.30Q4.16 11.78 3.41 11.38L3.41 11.38L3.41 11.38Q2.66 10.98 2.56 9.71L2.56 9.71L2.58 5.63L2.58 5.63Q3.00 5.11 3.40 5.07ZM10.00 3.66L10.00 3.66L10.00 3.66Q9.54 3.88 9.12 4.31L9.12 4.31L9.12 4.31Q8.92 3.75 8.46 3.58L8.46 3.58L7.21 4.68L7.29 4.97L7.29 4.97Q7.81 4.76 7.72 7.83L7.72 7.83L7.72 7.83Q7.53 10.55 7.68 11.27L7.68 11.27L7.68 11.27Q7.82 11.99 8.87 12.52L8.87 12.52L8.87 12.52Q9.93 13.06 10.96 12.41L10.96 12.41L10.96 12.41Q12.00 11.76 12.38 11.30L12.38 11.30L12.38 11.30Q12.76 10.83 12.90 10.43L12.90 10.43L12.90 10.43Q13.03 10.03 13.05 9.41L13.05 9.41L13.05 9.41Q13.07 8.78 12.67 7.99L12.67 7.99L12.67 7.99Q12.28 7.21 10.95 7.03L10.95 7.03L10.95 7.03Q12.38 6.01 12.18 4.96L12.18 4.96L12.18 4.96Q11.98 3.92 11.22 3.68L11.22 3.68L11.22 3.68Q10.47 3.44 10.00 3.66ZM10.02 4.49L10.02 4.49L10.02 4.49Q10.58 4.63 10.77 5.41L10.77 5.41L10.77 5.41Q10.96 6.19 10.54 6.96L10.54 6.96L10.54 6.96Q9.60 6.95 9.23 7.33L9.23 7.33L9.26 4.83L9.26 4.83Q9.47 4.34 10.02 4.49ZM9.20 8.32L9.20 8.32Q9.47 7.64 10.06 7.57L10.06 7.57L10.06 7.57Q10.66 7.51 11.19 8.29L11.19 8.29L11.19 8.29Q11.73 9.06 11.65 9.92L11.65 9.92L11.65 9.92Q11.56 10.78 11.15 11.31L11.15 11.31L11.15 11.31Q10.73 11.84 10.16 11.55L10.16 11.55L10.16 11.55Q9.58 11.27 9.31 10.63L9.31 10.63L9.31 10.63Q9.03 10.00 9.20 8.32L9.20 8.32Z"></path></g><!----><!----></svg>