<svg data-v-423bf9ae="" xmlns="http://www.w3.org/2000/svg" viewBox="0 0 175.2836806433306 60" class="font"><!----><!----><defs data-v-423bf9ae=""><linearGradient data-v-423bf9ae="" gradientTransform="rotate(25)" id="45c87cb4-2c2b-4b2f-b3bc-bc402285b7be" x1="0%" y1="0%" x2="100%" y2="0%"><stop data-v-423bf9ae="" offset="0%" style="stop-color: rgb(78, 26, 112); stop-opacity: 1;"></stop><stop data-v-423bf9ae="" offset="100%" style="stop-color: rgb(43, 76, 242); stop-opacity: 1;"></stop></linearGradient></defs><g data-v-423bf9ae="" id="a70a4f38-7597-43fd-8cb6-98bc66ca58f0" fill="url(#45c87cb4-2c2b-4b2f-b3bc-bc402285b7be)" transform="matrix(4.101162231157369,0,0,4.101162231157369,-0.6971999552817607,-17.552974732974455)"><path d="M0.17 12.68L0.17 12.68L0.17 12.68Q0.17 9.34 4.66 8.16L4.66 8.16L4.66 8.16Q4.87 8.11 4.87 8.02L4.87 8.02L4.87 6.06L4.87 6.06Q4.87 5.56 6.31 4.90L6.31 4.90L6.31 4.90Q7.60 4.31 8.16 4.31L8.16 4.31L8.16 4.52L8.16 4.52Q6.86 5.43 6.86 8.32L6.86 8.32L6.86 8.32Q6.86 8.58 6.87 9.09L6.87 9.09L6.87 9.09Q6.89 9.60 6.89 9.87L6.89 9.87L6.89 9.87Q6.89 10.93 6.90 11.24L6.90 11.24L6.90 11.24Q6.97 12.80 7.46 12.80L7.46 12.80L7.46 12.80Q7.59 12.80 7.82 12.71L7.82 12.71L7.82 12.71Q8.05 12.61 8.18 12.61L8.18 12.61L8.18 12.61Q8.18 13.62 7.63 14.48L7.63 14.48L7.63 14.48Q7.01 15.46 6.06 15.46L6.06 15.46L6.06 15.46Q5.56 15.46 5.29 15.08L5.29 15.08L5.29 15.08Q5.18 14.92 4.90 14.29L4.90 14.29L4.90 14.29Q4.68 13.79 4.38 13.62L4.38 13.62L4.38 13.62Q4.09 13.85 3.67 14.38L3.67 14.38L3.67 14.38Q3.25 14.92 3.01 15.11L3.01 15.11L3.01 15.11Q2.58 15.46 2.07 15.46L2.07 15.46L2.07 15.46Q1.23 15.46 0.66 14.46L0.66 14.46L0.66 14.46Q0.17 13.61 0.17 12.68ZM2.41 11.19L2.41 11.31L2.41 11.31Q2.41 13.36 3.12 13.48L3.12 13.48L3.12 13.48Q3.65 13.57 4.13 12.08L4.13 12.08L4.13 12.08Q4.54 10.82 4.54 10.23L4.54 10.23L4.54 10.23Q4.54 9.94 4.40 9.87L4.40 9.87L4.40 9.87Q4.31 9.83 3.98 9.83L3.98 9.83L3.98 9.83Q2.72 9.83 2.42 10.54L2.42 10.54L2.42 10.92L2.42 10.92Q2.42 11.05 2.41 11.19L2.41 11.19ZM9.76 10.70L9.76 10.70L9.76 10.70Q9.76 10.01 9.58 8.67L9.58 8.67L9.58 8.67Q9.39 7.32 9.39 6.64L9.39 6.64L9.39 6.64Q9.39 6.01 10.65 5.12L10.65 5.12L10.65 5.12Q11.84 4.28 12.50 4.28L12.50 4.28L12.50 4.28Q12.50 4.72 12.21 5.51L12.21 5.51L12.21 5.51Q11.93 6.30 11.91 6.71L11.91 6.71L11.91 6.71Q11.89 7.24 11.96 8.04L11.96 8.04L11.96 8.04Q12.04 9.03 12.04 9.38L12.04 9.38L12.04 9.38Q12.31 9.38 13.11 8.97L13.11 8.97L13.11 8.97Q13.92 8.55 14.29 8.55L14.29 8.55L14.29 8.55Q16.06 8.55 16.06 10.70L16.06 10.70L16.06 10.70Q16.06 12.56 14.87 13.96L14.87 13.96L14.87 13.96Q13.61 15.43 11.77 15.43L11.77 15.43L11.77 15.43Q11.61 15.43 11.28 15.35L11.28 15.35L11.28 15.35Q10.95 15.27 10.78 15.27L10.78 15.27L10.78 15.27Q10.50 15.27 9.97 15.51L9.97 15.51L9.97 15.51Q9.44 15.74 9.16 15.74L9.16 15.74L9.16 15.74Q9.16 15.43 9.32 14.83L9.32 14.83L9.32 14.83Q9.46 14.35 9.60 13.89L9.60 13.89L9.60 13.89Q9.76 12.94 9.76 10.70ZM13.03 10.37L13.03 10.37L13.03 10.37Q12.71 10.37 12.35 10.65L12.35 10.65L12.35 10.65Q11.98 10.92 11.98 11.23L11.98 11.23L11.98 13.61L11.98 13.61Q12.15 13.69 12.40 13.75L12.40 13.75L12.54 13.75L12.54 13.75Q13.29 13.75 13.72 13.08L13.72 13.08L13.72 13.08Q14.10 12.50 14.10 11.72L14.10 11.72L14.10 11.72Q14.10 11.17 13.85 10.81L13.85 10.81L13.85 10.81Q13.55 10.37 13.03 10.37ZM16.60 10.74L16.60 10.74L16.60 10.74Q16.60 8.82 17.65 7.13L17.65 7.13L17.65 7.13Q18.68 5.47 20.38 4.52L20.38 4.52L20.38 4.52Q20.43 4.52 20.52 4.51L20.52 4.51L20.52 4.51Q20.62 4.49 20.66 4.49L20.66 4.49L20.66 4.49Q21.11 4.49 21.34 5.05L21.34 5.05L21.34 5.05Q21.50 5.46 21.50 5.99L21.50 5.99L21.50 5.99Q21.50 7.41 20.75 8.69L20.75 8.69L20.75 8.69Q20.29 9.48 18.98 10.96L18.98 10.96L18.98 11.17L18.98 11.17Q18.98 11.69 19.12 12.21L19.12 12.21L19.12 12.21Q19.32 12.94 19.68 12.94L19.68 12.94L19.68 12.94Q19.92 12.94 20.10 12.78L20.10 12.78L20.10 12.78Q20.73 12.24 21.22 11.66L21.22 11.66L21.49 11.66L21.49 11.66Q21.49 12.99 20.80 14.13L20.80 14.13L20.80 14.13Q20.01 15.46 18.70 15.46L18.70 15.46L18.70 15.46Q17.56 15.46 16.98 13.47L16.98 13.47L16.98 13.47Q16.60 12.15 16.60 10.74ZM19.33 6.73L19.33 6.73L19.33 6.73Q19.19 6.73 19.01 7.73L19.01 7.73L19.01 7.73Q18.80 8.88 18.80 9.98L18.80 9.98L18.98 9.98L18.98 9.98Q19.17 9.98 19.38 9.09L19.38 9.09L19.38 9.09Q19.56 8.30 19.56 7.99L19.56 7.99L19.56 7.99Q19.56 7.11 19.40 6.76L19.40 6.76L19.40 6.76Q19.38 6.73 19.33 6.73ZM22.40 12.45L22.40 12.45L22.40 12.45Q22.40 10.70 23.48 9.34L23.48 9.34L23.48 9.34Q24.63 7.87 26.33 7.87L26.33 7.87L26.33 7.87Q27.72 7.87 28.41 8.85L28.41 8.85L28.41 8.85Q29.01 9.70 29.01 11.13L29.01 11.13L29.01 11.13Q29.01 12.68 28.07 14L28.07 14L28.07 14Q27.03 15.46 25.49 15.46L25.49 15.46L25.49 15.46Q24.35 15.46 23.37 14.52L23.37 14.52L23.37 14.52Q22.40 13.58 22.40 12.45ZM24.35 11.28L24.35 11.28L24.35 11.28Q24.35 12.46 25.91 13.76L25.91 13.76L26.10 13.76L26.10 13.76Q26.24 13.78 26.26 13.78L26.26 13.78L26.26 13.78Q26.75 13.78 26.99 13.26L26.99 13.26L26.99 13.26Q27.17 12.87 27.17 12.31L27.17 12.31L27.17 12.31Q27.17 11.34 26.87 10.58L26.87 10.58L26.87 10.58Q26.43 9.53 25.62 9.53L25.62 9.53L25.62 9.53Q25.27 9.53 25.09 10.04L25.09 10.04L25.09 10.04Q25.03 10.30 24.89 10.84L24.89 10.84L24.89 10.84Q24.77 11.28 24.35 11.28ZM29.53 18.27L29.53 18.27L29.53 18.27Q29.53 18.10 29.55 18.06L29.55 18.06L29.55 18.06Q30.16 17.04 31.37 15.96L31.37 15.96L31.51 15.95L31.51 15.95Q31.63 15.95 31.82 16.31L31.82 16.31L31.82 16.31Q32.12 16.86 32.26 17.01L32.26 17.01L32.26 17.01Q32.59 17.37 33.12 17.37L33.12 17.37L33.12 17.37Q33.84 17.37 34.19 16.56L34.19 16.56L34.19 16.56Q34.45 15.96 34.45 15.13L34.45 15.13L34.45 15.13Q34.45 14.28 34.31 13.30L34.31 13.30L34.31 13.30Q34.30 13.30 34.29 13.29L34.29 13.29L34.24 13.29L34.24 13.29Q34.01 13.29 33.60 13.83L33.60 13.83L33.60 13.83Q32.89 14.77 32.82 14.85L32.82 14.85L32.82 14.85Q32.31 15.40 31.86 15.40L31.86 15.40L31.86 15.40Q30.10 15.40 30.10 13.02L30.10 13.02L30.10 13.02Q30.10 11.45 30.97 10.18L30.97 10.18L30.97 10.18Q31.86 8.85 33.33 8.40L33.33 8.40L33.33 8.40Q33.96 8.41 34.66 8.41L34.66 8.41L34.66 8.41Q35.38 8.41 36.13 8.40L36.13 8.40L36.97 8.26L36.97 8.26Q36.95 8.26 37.14 8.25L37.14 8.25L37.14 8.25Q37.14 8.75 36.83 8.96L36.83 8.96L36.83 8.96Q36.54 9.81 36.54 10.93L36.54 10.93L36.54 10.93Q36.54 11.48 36.62 12.58L36.62 12.58L36.62 12.58Q36.71 13.68 36.71 14.22L36.71 14.22L36.71 14.22Q36.71 15.72 36.55 16.38L36.55 16.38L36.55 16.38Q36.50 16.60 36.36 16.72L36.36 16.72L35.99 16.94L35.99 16.94Q34.82 17.91 33.87 18.35L33.87 18.35L33.87 18.35Q32.66 18.91 31.37 18.91L31.37 18.91L31.37 18.91Q30.55 18.91 30.30 18.87L30.30 18.87L30.30 18.87Q29.53 18.75 29.53 18.27ZM31.92 11.62L31.92 11.62L31.92 11.62Q31.92 12.10 32.06 12.49L32.06 12.49L32.06 12.49Q32.26 13.03 32.63 13.03L32.63 13.03L32.63 13.03Q33.03 13.03 33.63 11.93L33.63 11.93L33.63 11.93Q34.19 10.91 34.19 10.50L34.19 10.50L34.19 10.50Q34.19 10.53 34.17 10.36L34.17 10.36L34.10 10.32L34.10 10.32Q33.68 10.07 33.28 10.07L33.28 10.07L33.28 10.07Q31.92 10.07 31.92 11.62ZM42.91 13.01L42.91 13.01L42.91 13.01Q42.91 12.14 41.92 11.52L41.92 11.52L41.92 11.52Q40.63 10.71 40.74 10.02L40.74 10.02L40.74 10.02Q40.80 9.70 41.20 9.35L41.20 9.35L41.20 9.35Q41.68 9.02 41.80 8.92L41.80 8.92L41.80 8.92Q42.10 8.67 42.14 8.44L42.14 8.44L42.14 8.44Q42.21 8.05 41.61 8.05L41.61 8.05L41.61 8.05Q40.61 8.05 39.47 8.82L39.47 8.82L39.47 8.82Q38.22 9.66 38.22 10.61L38.22 10.61L38.22 10.61Q38.22 11.28 39.03 11.83L39.03 11.83L39.03 11.83Q40.01 12.49 40.01 13.23L40.01 13.23L40.01 13.23Q40.01 14.08 38.98 14.66L38.98 14.66L38.98 14.66Q38.35 15.01 38.28 15.33L38.28 15.33L38.28 15.33Q38.19 15.75 39.09 15.75L39.09 15.75L39.09 15.75Q40.35 15.75 41.54 15.02L41.54 15.02L41.54 15.02Q42.91 14.20 42.91 13.01Z"></path></g><!----><!----></svg>